# xmcd
#
# Track frame offsets:
#	150
#	19148
#	41075
#	65436
#	83533
#	101480
#	117381
#	141533
#	161156
#	180369
#	198167
#	219764
#	241753
#
# Disc length: 3492 seconds
#
# Revision: 2
# Processed by: cddbd v1.4PL0 Copyright (c) Steve Scherf et al.
# Submitted via: CDmax 1.8
#
DISCID=a90da20d
DTITLE=Johnny Hallyday - Sang pour sang
DYEAR=1900
DGENRE=
TTITLE0=Sang pour sang
TTITLE1=Le poids de mes maux
TTITLE2=Quelques cris
TTITLE3=Un jour viendra
TTITLE4=Notre histoire
TTITLE5=Les larmes de la gloire
TTITLE6=Si tu m'aimais
TTITLE7=Sang pour sang (live)
TTITLE8=Partie de cartes
TTITLE9=Pardon
TTITLE10=Ex
TTITLE11=Je t'aime comme je respire
TTITLE12=Vivre pour le meilleur
EXTD=
EXTT0=
EXTT1=
EXTT2=
EXTT3=
EXTT4=
EXTT5=
EXTT6=
EXTT7=
EXTT8=
EXTT9=
EXTT10=
EXTT11=
EXTT12=
PLAYORDER=
